<?xml version="1.0" encoding="utf-8"?>
<!-- Generator: Adobe Illustrator 19.2.1, SVG Export Plug-In . SVG Version: 6.00 Build 0)  -->
<svg version="1.1" id="Layer_1" xmlns="http://www.w3.org/2000/svg" xmlns:xlink="http://www.w3.org/1999/xlink" x="0px" y="0px"
	 viewBox="0 0 158 154.3" style="enable-background:new 0 0 158 154.3;" xml:space="preserve">
<style type="text/css">
	.st0{fill:#2CB790;}
	.st1{fill:none;stroke:#2CB790;stroke-width:2.6963;stroke-miterlimit:10;}
</style>
<g>
	<g>
		<g>
			<g>
				<g>
					<path class="st0" d="M63.1,148c-7.3,0-15.3-4.6-17.2-17.6c-1.8-12.3,0.6-22.3,7.1-29.8c8-9.2,19.7-11.6,25.4-11.6v4
						c-4.7,0-15.4,2.1-22.4,10.2c-5.7,6.5-7.7,15.5-6.2,26.5c1.9,13.5,10.5,14.4,14.1,14.1c6.5-0.5,12.4-5.1,12.4-9.8h4
						c0,6.9-7.4,13.2-16.2,13.8C64,148,63.5,148,63.1,148z"/>
				</g>
				<g>
					<path class="st0" d="M93.9,148c-0.4,0-0.8,0-1.2,0c-8.8-0.6-16.2-7-16.2-13.8h4c0,4.7,5.9,9.3,12.4,9.8
						c3.6,0.3,12.2-0.6,14.1-14.1c1.6-11.1-0.5-20-6.2-26.5C93.9,95.1,83.2,93,78.5,93v-4c5.7,0,17.5,2.5,25.4,11.6
						c6.5,7.5,8.9,17.5,7.1,29.8C109.2,143.4,101.2,148,93.9,148z"/>
				</g>
			</g>
		</g>
		<g>
			<g>
				<rect x="76.6" y="91.7" class="st0" width="4" height="42.5"/>
			</g>
		</g>
		<g>
			<g>
				<g>
					<path class="st0" d="M79.4,65.3c-5.7,0-17.5-2.5-25.4-11.6c-6.5-7.5-8.9-17.5-7.1-29.8c2-13.8,10.8-18.1,18.4-17.6
						c8.8,0.6,16.2,7,16.2,13.8h-4c0-4.7-5.9-9.3-12.4-9.8c-3.6-0.2-12.2,0.6-14.1,14.1c-1.6,11.1,0.5,20,6.2,26.5
						c7,8.1,17.7,10.2,22.4,10.2V65.3z"/>
				</g>
				<g>
					<path class="st0" d="M79.4,65.3v-4c4.7,0,15.4-2.1,22.4-10.2c5.7-6.5,7.7-15.5,6.2-26.5C106.1,11,97.5,10.1,93.9,10.4
						c-6.5,0.5-12.4,5.1-12.4,9.8h-4c0-6.9,7.4-13.2,16.2-13.8c7.6-0.5,16.4,3.8,18.4,17.6c1.8,12.3-0.6,22.3-7.1,29.8
						C96.9,62.9,85.1,65.3,79.4,65.3z"/>
				</g>
			</g>
		</g>
		<g>
			<g>
				<rect x="77.5" y="20.2" class="st0" width="4" height="42.5"/>
			</g>
		</g>
		<g>
			<g>
				<g>
					<path class="st0" d="M124.7,110.7c-8.9,0-16.4-2.6-22.3-7.7c-9.2-8-11.6-19.7-11.6-25.4h4c0,4.7,2.1,15.4,10.2,22.4
						c6.5,5.7,15.5,7.8,26.5,6.2c13.5-1.9,14.4-10.5,14.1-14.1c-0.5-6.5-5.1-12.4-9.8-12.4v-4c6.9,0,13.2,7.4,13.8,16.2
						c0.5,7.6-3.8,16.4-17.6,18.4C129.6,110.5,127.1,110.7,124.7,110.7z"/>
				</g>
				<g>
					<path class="st0" d="M136,79.6v-4c4.7,0,9.3-5.9,9.8-12.4c0.3-3.6-0.6-12.2-14.1-14.1c-11.1-1.6-20,0.5-26.5,6.2
						c-8.1,7-10.2,17.7-10.2,22.4h-4c0-5.7,2.5-17.5,11.6-25.4c7.5-6.5,17.5-8.9,29.8-7.1c13.8,2,18.1,10.8,17.6,18.4
						C149.2,72.2,142.8,79.6,136,79.6z"/>
				</g>
			</g>
		</g>
		<g>
			<g>
				
					<rect x="112.7" y="56.2" transform="matrix(4.587448e-011 -1 1 4.587448e-011 37.2456 192.205)" class="st0" width="4" height="42.5"/>
			</g>
		</g>
		<g>
			<g>
				<g>
					<path class="st0" d="M33.3,109.8c-2.4,0-4.9-0.2-7.5-0.6C12,107.3,7.6,98.5,8.2,90.9c0.6-8.8,7-16.2,13.8-16.2v4
						c-4.7,0-9.3,5.9-9.8,12.4c-0.3,3.6,0.6,12.2,14.1,14.1c11.1,1.6,20-0.5,26.5-6.2c8.1-7,10.2-17.7,10.2-22.4h4
						c0,5.7-2.5,17.5-11.6,25.4C49.6,107.2,42.2,109.8,33.3,109.8z"/>
				</g>
				<g>
					<path class="st0" d="M22,78.7c-6.9,0-13.2-7.4-13.8-16.2C7.6,54.9,12,46.1,25.8,44.1c12.3-1.7,22.3,0.6,29.8,7.1
						c9.2,8,11.6,19.7,11.6,25.4h-4c0-4.7-2.1-15.4-10.2-22.4c-6.5-5.7-15.5-7.7-26.5-6.2c-13.5,1.9-14.4,10.5-14.1,14.1
						c0.5,6.5,5.1,12.4,9.8,12.4V78.7z"/>
				</g>
			</g>
		</g>
		<g>
			<g>
				
					<rect x="41.2" y="55.3" transform="matrix(5.127194e-011 -1 1 5.127194e-011 -33.3477 119.8142)" class="st0" width="4" height="42.5"/>
			</g>
		</g>
		<path class="st0" d="M93,32.4c0,17.1,13.9,31,31,31c8,0,15.2-3,20.7-8c-0.6-1.1-1.5-2.5-2.3-3.4c-4.8,4.5-11.3,7.3-18.4,7.3
			c-14.9,0-27-12.1-27-27c0-7.2,2.9-13.7,7.5-18.6l-2.9-2.8C96.3,16.6,93,24.2,93,32.4z"/>
		<path class="st0" d="M97.1,121.9c0-14.9,12.1-27,27-27c7.4,0,14.1,3,19,7.8l2.4-3.3c-5.6-5.3-13.1-8.5-21.3-8.5
			c-17.1,0-31,13.9-31,31c0,8.1,3.2,15.5,8.3,21.1c1.1-0.8,2.4-2,3.1-2.6C99.9,135.5,97.1,129,97.1,121.9z"/>
		<path class="st0" d="M65.8,121.4c0-17.1-13.9-31-31-31c-8.4,0-16.1,3.4-21.7,8.9c0.7,0.9,1.8,2.3,2.6,3.1c4.9-4.9,11.7-8,19.1-8
			c14.9,0,27,12.1,27,27c0,7.6-3.2,14.5-8.3,19.4l3.3,2.4C62.4,137.7,65.8,129.9,65.8,121.4z"/>
		<path class="st0" d="M57.1,10.9L54,13.5c4.8,4.9,7.8,11.5,7.8,18.9c0,14.9-12.1,27-27,27c-7.5,0-14.4-3.1-19.2-8.1l-2.8,2.9
			c5.6,5.7,13.4,9.2,22,9.2c17.1,0,31-13.9,31-31C65.8,24.1,62.5,16.5,57.1,10.9z"/>
	</g>
	<circle class="st1" cx="129.3" cy="29.1" r="6.7"/>
	<circle class="st1" cx="29.5" cy="29.1" r="6.7"/>
	<circle class="st1" cx="129.3" cy="126.2" r="6.7"/>
	<circle class="st1" cx="29.5" cy="126.2" r="6.7"/>
</g>
</svg>
